<?xml version="1.0"?>
<svg width="1080" height="1080" xmlns="http://www.w3.org/2000/svg" xmlns:svg="http://www.w3.org/2000/svg" version="1.1" xml:space="preserve">
 <desc>Created with Fabric.js 5.2.4</desc>

 <g class="layer">
  <title>Layer 1</title>
  <g id="svg_7">
   <g id="a6707f37-dc0d-4659-9dc7-2507213c47c6" transform="matrix(3.63189 0 0 4.53133 1676.87 1001.79)"/>
   <path d="m155.48,106.33c-23.56,9.87 -32.62,17.06 -50.3,39.05c-15.41,19.75 -24.47,46.23 -20.84,60.59c2.27,8.08 5.89,8.98 47.12,8.98c39.87,0 44.86,0.9 49.39,8.98c2.72,4.94 3.62,11.22 2.27,13.47c-1.36,2.69 -19.94,4.49 -41.23,4.49c-21.3,0 -42.59,2.24 -47.58,4.49c-11.33,6.28 -11.33,25.14 0.45,42.64c8.61,13.02 9.06,21.54 9.06,204.22c0,171.91 0.91,192.1 7.7,201.98c4.08,6.28 9.97,12.57 12.23,14.36c2.72,1.8 78.84,3.59 169.47,3.59c142.28,0 164.48,0.9 166.75,6.73c4.08,9.87 -6.34,20.2 -19.48,20.2c-19.03,0 -77.03,26.93 -98.78,45.78c-24.92,21.99 -38.51,46.23 -38.51,70.47c0,24.69 5.89,37.7 27.19,60.59c61.17,65.53 215.68,85.28 330.77,42.19c18.58,-7.18 53.47,-28.28 63.44,-39.05c30.81,-31.87 36.25,-74.51 14.05,-108.62c-19.94,-31.87 -82.01,-66.88 -127.33,-72.26c-8.61,-0.9 -11.33,-4.04 -11.33,-12.57l0,-11.22l167.65,-2.24c92.44,-1.35 168.11,-3.14 168.56,-3.59c0.45,-0.45 4.98,-7.63 9.97,-16.16c9.06,-14.36 9.52,-20.65 9.52,-191.65l0,-176.39l10.87,-11.22c11.78,-13.02 29.91,-44.44 29.91,-52.96c0,-14.36 -14.05,-19.3 -54.83,-19.3c-32.17,0 -41.23,-1.35 -43.05,-6.73c-5.89,-14.81 6.8,-19.75 51.66,-21.1l43.95,-1.35l1.36,-14.81c3.17,-31.87 -35.34,-79.89 -74.76,-93.36c-37.61,-13.02 -80.2,-1.8 -109.2,28.73l-15.86,16.61l-54.83,0l-54.37,0l-13.14,-19.3c-7.25,-10.32 -18.58,-21.99 -25.83,-25.58c-16.77,-8.53 -44.86,-8.53 -62.53,0c-12.69,6.28 -15.41,6.28 -27.64,0c-24.47,-12.12 -54.37,-8.53 -78.39,10.77c-5.89,4.49 -9.52,4.94 -13.59,1.35c-3.17,-2.24 -13.59,-5.83 -22.66,-7.63c-13.14,-2.69 -21.3,-0.9 -38.97,8.98c-18.12,9.87 -24.47,11.22 -31.72,7.18c-18.58,-9.87 -47.58,-5.83 -67.97,8.98l-19.03,13.47l-22.66,-19.3c-35.8,-30.52 -69.78,-37.7 -106.94,-22.44zm62.08,35.01c20.39,10.32 29,20.65 46.67,56.1c17.67,35.46 18.12,32.77 -7.25,70.47c-19.48,28.73 -39.42,41.29 -64.8,41.29c-21.75,0 -54.83,-14.81 -49.84,-22.44c0.91,-1.8 13.59,-4.49 27.64,-5.39c22.2,-1.8 28.09,-4.49 38.97,-16.61c16.77,-18.85 18.12,-52.07 2.72,-66.88c-13.59,-12.57 -32.17,-18.85 -53.92,-18.85c-30.81,0 -28.55,-18.4 4.53,-35.91c19.94,-10.32 37.61,-11.22 55.28,-1.8zm325.79,1.8c7.7,7.63 9.06,14.81 9.06,43.54c0,19.3 -1.36,39.5 -2.72,44.44c-5.89,21.99 -38.97,21.54 -47.12,-0.45c-9.52,-25.14 -3.17,-84.38 9.97,-92.91c9.97,-5.83 21.3,-4.04 30.81,5.39zm91.53,-1.35c6.8,5.83 8.16,14.36 8.16,51.17c0,48.03 -2.72,53.41 -29,53.41c-18.12,0 -25.37,-15.26 -25.37,-54.31c0,-27.83 1.81,-36.36 9.52,-46.23c10.42,-13.47 24.47,-14.81 36.7,-4.04zm279.12,0.9c19.48,9.87 34.44,25.14 30.81,30.97c-1.36,2.24 -13.14,4.94 -26.28,6.28c-34.89,2.69 -50.3,11.67 -57.09,32.32c-12.69,38.6 11.78,70.02 55.28,70.02c24.02,0 26.28,4.49 7.7,17.5c-17.67,12.57 -50.75,12.57 -71.14,0c-8.61,-4.94 -20.84,-18.4 -27.19,-29.17c-10.87,-17.95 -11.78,-23.79 -9.97,-52.96c1.81,-27.38 4.53,-35.91 14.95,-49.37c14.05,-18.4 39.42,-33.66 55.73,-34.11c5.44,0 17.67,4.04 27.19,8.53zm-459.46,14.81c8.61,11.67 9.97,61.94 2.27,75.85c-6.34,12.12 -22.2,17.5 -34.44,11.67c-9.52,-4.49 -10.42,-7.63 -10.42,-45.78c0,-25.58 1.81,-42.64 5.44,-46.23c9.06,-8.98 29.45,-6.28 37.16,4.49zm-95.15,8.53c10.42,8.08 11.78,12.12 11.78,36.36c0,31.87 -7.7,43.99 -27.64,43.99c-19.94,0 -26.73,-10.32 -26.73,-42.19c0,-27.83 4.98,-39.95 18.12,-44.44c10.87,-4.04 11.78,-3.59 24.47,6.28zm410.52,39.95c4.98,4.94 9.06,12.12 9.06,16.16c0,9.43 -77.48,162.48 -97.87,193c-18.12,26.93 -50.3,56.1 -74.31,67.33c-8.61,4.49 -17.22,9.87 -19.03,12.57c-1.81,2.69 -3.62,27.38 -3.62,54.76c0,37.25 -1.81,51.62 -6.34,55.21c-4.08,3.59 -27.19,4.94 -71.14,4.04l-65.25,-1.35l-2.27,-53.86c-1.36,-29.62 -3.62,-56.1 -5.44,-59.25c-2.27,-2.69 -15.41,-12.57 -29.45,-21.99c-44.41,-28.28 -64.8,-56.1 -79.3,-109.52c-9.52,-34.56 -10.87,-75.85 -2.27,-76.75c2.72,-0.45 10.87,0 17.22,0.45c6.34,0 20.39,-2.69 30.81,-7.18c16.77,-6.28 20.84,-6.73 30.81,-1.35c14.95,8.08 51.2,8.08 66.15,0c9.97,-5.39 14.05,-4.94 32.17,1.8c20.84,8.08 48.48,6.73 60.26,-3.14c4.08,-3.14 12.23,-2.24 27.19,2.69c11.33,4.04 26.73,7.18 33.98,7.18c9.06,0 12.69,2.24 12.69,8.08c0,9.43 12.23,27.83 18.58,27.83c4.98,0 31.26,-26.93 31.26,-32.32c0,-5.83 40.78,-72.71 51.2,-83.48c11.33,-12.12 23.11,-12.57 34.89,-0.9zm47.12,112.21c9.97,9.87 20.39,17.95 23.11,17.95c3.17,0 8.61,3.59 13.14,8.08c6.8,7.63 7.25,21.99 6.34,136l-1.36,127.47l-115.54,1.35c-93.34,0.9 -116.45,0 -120.08,-4.94c-2.27,-3.59 -4.08,-23.34 -3.17,-44.88l1.36,-38.15l31.26,-22.89c40.33,-29.62 65.25,-63.74 102.86,-137.79c19.48,-39.05 32.62,-60.14 37.16,-60.14c4.08,0 15.41,8.08 24.92,17.95zm-535.13,21.54c5.44,30.52 11.78,58.8 15.86,66.88c2.27,4.49 7.7,15.26 12.23,23.79c10.42,20.65 44.86,55.66 69.33,70.92l19.03,12.12l-0.91,47.13l-1.36,47.13l-99.69,0l-99.69,0l-1.36,-127.02c-0.91,-118.04 -0.45,-127.02 6.8,-129.27c20.84,-6.28 52.11,-21.99 58.91,-29.62c9.52,-10.77 17.67,-4.04 20.84,17.95zm-123.7,149.46c0,127.92 0.45,133.31 9.52,144.98l9.06,11.67l350.26,0l350.26,0l10.87,-11.67l10.87,-11.67l1.36,-136.45c0.91,-115.8 2.27,-136.45 7.7,-136.45c5.89,0 6.8,22.89 6.8,161.13c0,142.73 -0.91,161.58 -7.25,163.83c-13.14,4.94 -749.45,3.14 -758.97,-1.8c-8.16,-4.49 -8.61,-11.22 -8.61,-165.62c0,-88.42 1.36,-162.03 3.17,-163.83c1.81,-1.8 5.89,0.45 9.06,4.49c4.53,6.28 5.89,40.4 5.89,141.38zm396.48,264.37l0,38.15l-24.47,1.35c-16.77,0.9 -25.83,-0.45 -28.09,-4.49c-5.44,-8.08 -4.98,-49.82 0.45,-64.18c4.08,-10.77 6.34,-11.67 28.09,-10.32l24.02,1.35l0,38.15zm-98.78,26.03c2.72,1.8 6.34,10.77 8.16,19.75c4.98,26.93 15.41,32.32 61.62,34.11c39.42,1.8 40.33,1.8 53.92,-11.67c7.7,-8.08 13.59,-18.4 13.59,-25.14c0,-22.44 22.66,-22.89 65.25,-2.24c34.89,17.06 46.67,28.28 53.47,49.37c11.33,37.7 -15.41,63.29 -92.89,90.22c-41.23,13.91 -142.28,13.47 -184.42,-0.45c-35.8,-12.12 -63.89,-27.83 -79.3,-44.44c-15.41,-16.61 -15.86,-45.33 0,-65.53c14.05,-18.4 59.81,-41.29 92.89,-47.13c1.36,0 4.53,1.35 7.7,3.14z" fill="rgb(169, 169, 169)"  fill-rule="nonzero" id="svg_4" stroke-dashoffset="0" stroke-miterlimit="4"/>
   <g id="svg_5" transform="matrix(0.472146 0 0 -0.589073 1691.68 721.799)">
    <path d="m2128.73,5921.79c-63,-32 -93,-60 -132,-121c-30,-48 -32,-104 -5,-119c23,-12 47,7 67,55c7,16 23,42 37,57c29,32 101,78 121,78c8,0 22,10 30,21c11,17 12,25 3,40c-17,27 -53,23 -121,-11z" fill="rgb(169, 169, 169)" fill-rule="nonzero" id="svg_6" stroke-dashoffset="0" stroke-miterlimit="4" transform="translate(-4481.56 -5272.61)"/>
   </g>
  </g>
 </g>
</svg>