<?xml version="1.0" standalone="no"?>
<!DOCTYPE svg PUBLIC "-//W3C//DTD SVG 20010904//EN"
 "http://www.w3.org/TR/2001/REC-SVG-20010904/DTD/svg10.dtd">
<svg version="1.0" xmlns="http://www.w3.org/2000/svg"
 width="900.000000pt" height="633.000000pt" viewBox="0 0 900.000000 633.000000"
 preserveAspectRatio="xMidYMid meet">
<metadata>
Created by potrace 1.10, written by Peter Selinger 2001-2011
</metadata>
<g transform="translate(0.000000,633.000000) scale(0.100000,-0.100000)"
fill="#000000" stroke="none">
<path d="M3624 5872 c-52 -22 -72 -38 -111 -87 -34 -44 -54 -103 -46 -135 5
-18 13 -20 104 -20 88 0 99 -2 109 -20 6 -11 8 -25 5 -30 -3 -6 -44 -10 -91
-10 -47 0 -94 -5 -105 -10 -25 -14 -25 -56 1 -95 19 -29 20 -48 20 -455 0
-383 2 -428 17 -450 9 -14 22 -28 27 -32 6 -4 174 -8 374 -8 314 0 363 -2 368
-15 9 -22 -14 -45 -43 -45 -42 0 -170 -60 -218 -102 -55 -49 -85 -103 -85
-157 0 -55 13 -84 60 -135 135 -146 476 -190 730 -94 41 16 118 63 140 87 68
71 80 166 31 242 -44 71 -181 149 -281 161 -19 2 -25 9 -25 28 l0 25 370 5
c204 3 371 7 372 8 1 1 11 17 22 36 20 32 21 46 21 427 l0 393 24 25 c26 29
66 99 66 118 0 32 -31 43 -121 43 -71 0 -91 3 -95 15 -13 33 15 44 114 47 l97
3 3 33 c7 71 -78 178 -165 208 -83 29 -177 4 -241 -64 l-35 -37 -121 0 -120 0
-29 43 c-16 23 -41 49 -57 57 -37 19 -99 19 -138 0 -28 -14 -34 -14 -61 0 -54
27 -120 19 -173 -24 -13 -10 -21 -11 -30 -3 -7 5 -30 13 -50 17 -29 6 -47 2
-86 -20 -40 -22 -54 -25 -70 -16 -41 22 -105 13 -150 -20 l-42 -30 -50 43
c-79 68 -154 84 -236 50z m137 -78 c45 -23 64 -46 103 -125 39 -79 40 -73 -16
-157 -43 -64 -87 -92 -143 -92 -48 0 -121 33 -110 50 2 4 30 10 61 12 49 4 62
10 86 37 37 42 40 116 6 149 -30 28 -71 42 -119 42 -68 0 -63 41 10 80 44 23
83 25 122 4z m719 -4 c17 -17 20 -33 20 -97 0 -43 -3 -88 -6 -99 -13 -49 -86
-48 -104 1 -21 56 -7 188 22 207 22 13 47 9 68 -12z m202 3 c15 -13 18 -32 18
-114 0 -107 -6 -119 -64 -119 -40 0 -56 34 -56 121 0 62 4 81 21 103 23 30 54
33 81 9z m616 -2 c43 -22 76 -56 68 -69 -3 -5 -29 -11 -58 -14 -77 -6 -111
-26 -126 -72 -28 -86 26 -156 122 -156 53 0 58 -10 17 -39 -39 -28 -112 -28
-157 0 -19 11 -46 41 -60 65 -24 40 -26 53 -22 118 4 61 10 80 33 110 31 41
87 75 123 76 12 0 39 -9 60 -19z m-1014 -33 c19 -26 22 -138 5 -169 -14 -27
-49 -39 -76 -26 -21 10 -23 17 -23 102 0 57 4 95 12 103 20 20 65 14 82 -10z
m-210 -19 c23 -18 26 -27 26 -81 0 -71 -17 -98 -61 -98 -44 0 -59 23 -59 94 0
62 11 89 40 99 24 9 26 8 54 -14z m906 -89 c11 -11 20 -27 20 -36 0 -21 -171
-362 -216 -430 -40 -60 -111 -125 -164 -150 -19 -10 -38 -22 -42 -28 -4 -6 -8
-61 -8 -122 0 -83 -4 -115 -14 -123 -9 -8 -60 -11 -157 -9 l-144 3 -5 120 c-3
66 -8 125 -12 132 -5 6 -34 28 -65 49 -98 63 -143 125 -175 244 -21 77 -24
169 -5 171 6 1 24 0 38 -1 14 0 45 6 68 16 37 14 46 15 68 3 33 -18 113 -18
146 0 22 12 31 11 71 -4 46 -18 107 -15 133 7 9 7 27 5 60 -6 25 -9 59 -16 75
-16 20 0 28 -5 28 -18 0 -21 27 -62 41 -62 11 0 69 60 69 72 0 13 90 162 113
186 25 27 51 28 77 2z m104 -250 c22 -22 45 -40 51 -40 7 0 19 -8 29 -18 15
-17 16 -49 14 -303 l-3 -284 -255 -3 c-206 -2 -257 0 -265 11 -5 8 -9 52 -7
100 l3 85 69 51 c89 66 144 142 227 307 43 87 72 134 82 134 9 0 34 -18 55
-40z m-1181 -48 c12 -68 26 -131 35 -149 5 -10 17 -34 27 -53 23 -46 99 -124
153 -158 l42 -27 -2 -105 -3 -105 -220 0 -220 0 -3 283 c-2 263 -1 283 15 288
46 14 115 49 130 66 21 24 39 9 46 -40z m-273 -333 c0 -285 1 -297 21 -323
l20 -26 773 0 773 0 24 26 24 26 3 304 c2 258 5 304 17 304 13 0 15 -51 15
-359 0 -318 -2 -360 -16 -365 -29 -11 -1654 -7 -1675 4 -18 10 -19 25 -19 369
0 197 3 361 7 365 4 4 13 -1 20 -10 10 -14 13 -90 13 -315z m875 -589 l0 -85
-54 -3 c-37 -2 -57 1 -62 10 -12 18 -11 111 1 143 9 24 14 26 62 23 l53 -3 0
-85z m-218 -58 c6 -4 14 -24 18 -44 11 -60 34 -72 136 -76 87 -4 89 -4 119 26
17 18 30 41 30 56 0 50 50 51 144 5 77 -38 103 -63 118 -110 25 -84 -34 -141
-205 -201 -91 -31 -314 -30 -407 1 -79 27 -141 62 -175 99 -34 37 -35 101 0
146 31 41 132 92 205 105 3 0 10 -3 17 -7z"/>
<path d="M4496 5380 c-63 -32 -93 -60 -132 -121 -30 -48 -32 -104 -5 -119 23
-12 47 7 67 55 7 16 23 42 37 57 29 32 101 78 121 78 8 0 22 10 30 21 11 17
12 25 3 40 -17 27 -53 23 -121 -11z"/>
<path d="M4434 3667 c-3 -8 -4 -54 -2 -103 l3 -89 70 -5 70 -5 3 -507 2 -507
-72 -3 -73 -3 0 -100 0 -100 265 0 265 0 0 100 0 100 -75 5 -75 5 -3 604 c-2
469 -5 607 -15 613 -6 4 -90 8 -185 8 -134 0 -174 -3 -178 -13z"/>
<path d="M2275 3626 c-33 -7 -80 -20 -105 -28 -46 -16 -161 -75 -170 -88 -3
-3 -31 -25 -62 -49 -31 -23 -74 -66 -96 -94 -45 -59 -112 -183 -112 -208 0 -9
-6 -32 -14 -50 -29 -72 -27 -303 4 -389 6 -19 33 -78 58 -130 85 -176 235
-294 461 -361 67 -20 262 -18 345 4 103 28 217 94 276 159 45 51 58 39 66 -62
l7 -91 86 3 86 3 0 370 0 370 -345 0 -345 0 0 -95 0 -95 222 -5 c122 -3 225
-8 229 -12 15 -15 -69 -159 -120 -205 -106 -96 -185 -126 -330 -126 -102 0
-152 12 -246 59 -52 26 -142 123 -171 184 -45 97 -53 123 -57 210 -7 151 37
269 137 369 100 102 198 141 352 141 79 0 111 -5 165 -24 124 -45 213 -123
262 -228 l22 -48 109 0 c63 0 111 4 113 10 2 5 2 118 0 250 l-3 241 -107 -3
-107 -3 -3 -55 c-2 -30 -7 -59 -12 -64 -5 -5 -24 4 -45 23 -117 102 -364 155
-550 117z"/>
<path d="M3735 3205 c-168 -25 -301 -122 -377 -275 -31 -63 -39 -89 -44 -160
-8 -128 9 -221 59 -305 75 -128 166 -196 312 -236 157 -42 318 -13 461 85 32
22 117 125 143 174 52 98 65 247 32 365 -23 79 -94 191 -154 242 -108 92 -271
134 -432 110z m163 -207 c62 -15 136 -71 175 -133 29 -47 31 -56 32 -145 0
-79 -4 -103 -23 -142 -70 -142 -240 -198 -387 -128 -76 36 -125 102 -150 199
-17 67 -12 119 20 197 15 37 82 114 99 114 7 0 18 6 24 13 16 15 86 35 130 36
18 1 54 -4 80 -11z"/>
<path d="M5007 3193 c-4 -3 -7 -51 -7 -105 l0 -98 63 0 c34 0 67 -4 73 -8 8
-5 14 -75 17 -217 6 -273 20 -322 120 -432 127 -138 359 -164 526 -59 52 33
69 33 73 -1 l3 -28 188 -3 188 -2 -3 102 -3 103 -70 5 -70 5 -3 367 -2 368
-23 5 c-12 3 -96 4 -187 3 l-165 -3 -3 -102 -3 -103 64 0 c36 0 68 -5 75 -12
9 -9 12 -71 12 -215 l0 -204 -33 -34 c-18 -19 -60 -50 -92 -70 -53 -32 -66
-35 -132 -35 -104 0 -162 32 -206 115 -21 38 -22 55 -25 345 -2 222 -6 307
-15 312 -15 9 -351 11 -360 1z"/>
<path d="M6362 3188 c-14 -14 -17 -295 -4 -316 7 -11 117 -18 190 -13 8 1 12
19 12 55 0 91 -10 86 181 86 141 0 169 -2 169 -14 0 -13 -23 -40 -139 -165
-87 -94 -329 -357 -366 -397 -45 -49 -45 -50 -43 -114 l3 -65 439 -3 c337 -2
441 1 447 10 13 20 11 319 -2 334 -13 15 -174 20 -196 6 -7 -4 -13 -38 -15
-82 l-3 -75 -172 -3 c-121 -2 -173 1 -173 9 0 8 68 87 120 139 3 3 25 28 49
55 24 28 74 82 110 120 130 137 248 270 260 292 18 34 14 140 -5 147 -9 3
-203 6 -433 6 -311 0 -420 -3 -429 -12z"/>
<path d="M4827 1923 c-11 -10 -8 -401 2 -408 18 -11 31 33 31 103 0 55 5 76
23 103 20 30 28 34 73 37 46 3 51 1 74 -30 21 -28 26 -48 30 -123 3 -50 9 -90
15 -90 6 0 11 40 13 93 2 79 0 98 -17 126 -32 51 -86 70 -164 56 -52 -10 -57
-4 -57 78 0 57 -6 72 -23 55z"/>
<path d="M3837 1902 c-34 -7 -16 -22 26 -22 72 0 71 1 77 -187 4 -140 7 -168
20 -168 13 0 16 28 20 175 l5 175 53 3 c32 2 52 7 50 14 -4 10 -208 18 -251
10z"/>
<path d="M4592 1793 c-21 -3 -45 -17 -67 -40 -32 -33 -35 -41 -35 -98 0 -56 3
-66 33 -100 33 -38 36 -39 99 -39 60 0 67 3 97 32 50 52 41 69 -15 27 -24 -18
-45 -25 -77 -25 -39 0 -49 5 -76 35 -67 77 -26 177 73 177 35 0 54 -7 77 -26
34 -29 49 -33 49 -12 0 19 -57 66 -80 66 -10 0 -24 2 -32 3 -7 2 -28 2 -46 0z"/>
<path d="M4183 1771 c-13 -11 -23 -24 -23 -29 0 -5 -7 -15 -15 -22 -20 -17
-19 -92 1 -132 23 -44 52 -65 99 -72 71 -11 155 30 155 76 0 27 -22 22 -55
-12 -23 -24 -37 -30 -71 -30 -37 0 -47 5 -73 37 -22 27 -27 39 -18 45 6 4 63
8 125 8 106 0 112 1 112 20 0 34 -26 85 -55 108 -37 30 -148 31 -182 3z m165
-37 c13 -13 22 -31 20 -41 -3 -15 -15 -18 -78 -21 -119 -5 -141 7 -100 56 38
46 115 48 158 6z"/>
</g>
</svg>
